<svg id="Capa_1" enable-background="new 0 0 512 512" height="512" viewBox="0 0 512 512" width="512" xmlns="http://www.w3.org/2000/svg"><g><g><path d="m458.14 444.683h-404.28c-8.284 0-15-6.716-15-15v-246.53h434.28v246.53c0 8.284-6.715 15-15 15z" fill="#80b4fb"/></g><g><path d="m423.43 183.153v246.628c0 8.23-6.672 14.901-14.901 14.901h49.71c8.23 0 14.901-6.671 14.901-14.901v-246.628z" fill="#61a2f9"/></g><g><path d="m473.14 374.274h-236.197c-5.523 0-10-4.477-10-10v-168.162h246.197z" fill="#cbe2ff"/></g><g><path d="m187.485 444.683h-108.306v-154.052c0-5.523 4.477-10 10-10h88.306c5.523 0 10 4.477 10 10z" fill="#ffe07d"/></g><g><path d="m177.551 280.631h-28.449c5.486 0 9.934 4.448 9.934 9.934v154.117h28.449v-154.116c0-5.487-4.447-9.935-9.934-9.935z" fill="#ffd064"/></g><g><path d="m423.43 196.112h49.71v178.163h-49.71z" fill="#bed8fb"/></g><g><path d="m106.87 189.54h-99.419v-93.348c0-15.947 12.928-28.875 28.875-28.875h70.545v122.223z" fill="#b3e59f"/></g><g><path d="m106.87 67.317h99.42v122.222h-99.42z" fill="#f4fbff"/></g><g><path d="m206.29 67.317h99.42v122.222h-99.42z" fill="#b3e59f"/></g><g><path d="m504.549 189.54h-99.42v-122.223h70.545c15.947 0 28.875 12.928 28.875 28.875z" fill="#b3e59f"/></g><g><path d="m305.71 67.317h99.42v122.222h-99.42z" fill="#f4fbff"/></g><g><path d="m57.16 251.428c-27.454 0-49.71-22.256-49.71-49.71v-29.277h99.42v29.277c0 27.454-22.256 49.71-49.71 49.71z" fill="#95d6a4"/></g><g><path d="m156.58 251.428c-27.454 0-49.71-22.256-49.71-49.71v-29.277h99.42v29.277c0 27.454-22.256 49.71-49.71 49.71z" fill="#e4f6ff"/></g><g><path d="m256 251.428c-27.454 0-49.71-22.256-49.71-49.71v-29.277h99.42v29.277c0 27.454-22.256 49.71-49.71 49.71z" fill="#95d6a4"/></g><g><path d="m454.84 251.428c-27.454 0-49.71-22.256-49.71-49.71v-29.277h99.42v29.277c-.001 27.454-22.256 49.71-49.71 49.71z" fill="#95d6a4"/></g><g><path d="m355.42 251.428c-27.454 0-49.71-22.256-49.71-49.71v-29.277h99.42v29.277c0 27.454-22.256 49.71-49.71 49.71z" fill="#e4f6ff"/></g><g><path d="m78.185 67.317h28.685v122.222h-28.685z" fill="#95d6a4"/></g><g><path d="m177.605 67.317h28.685v122.222h-28.685z" fill="#e4f6ff"/></g><g><path d="m277.025 67.317h28.685v122.222h-28.685z" fill="#95d6a4"/></g><g><path d="m475.865 67.317v122.222h28.685v-93.537c-.001-15.842-12.843-28.685-28.685-28.685z" fill="#95d6a4"/></g><g><path d="m376.445 67.317h28.685v122.222h-28.685z" fill="#e4f6ff"/></g><g><path d="m78.185 172.441v22.572c0 26.268-20.379 47.763-46.187 49.572 7.382 4.343 15.978 6.844 25.162 6.844 27.454 0 49.71-22.256 49.71-49.71v-29.277h-28.685z" fill="#78c2a4"/></g><g><path d="m177.605 172.441v22.572c0 26.268-20.379 47.763-46.187 49.572 7.382 4.343 15.978 6.844 25.162 6.844 27.454 0 49.71-22.256 49.71-49.71v-29.277h-28.685z" fill="#d3effb"/></g><g><path d="m277.025 172.441v22.572c0 26.268-20.379 47.763-46.187 49.572 7.382 4.343 15.978 6.844 25.162 6.844 27.454 0 49.71-22.256 49.71-49.71v-29.277h-28.685z" fill="#78c2a4"/></g><g><path d="m475.865 172.441v22.572c0 26.268-20.379 47.763-46.187 49.572 7.382 4.343 15.978 6.844 25.162 6.844 27.454 0 49.71-22.256 49.71-49.71v-29.277h-28.685z" fill="#78c2a4"/></g><g><path d="m376.445 172.441v22.572c0 26.268-20.379 47.763-46.187 49.572 7.382 4.343 15.978 6.844 25.162 6.844 27.454 0 49.71-22.256 49.71-49.71v-29.277h-28.685z" fill="#d3effb"/></g><g><ellipse cx="114.488" cy="372.262" rx="9.605" ry="9.605" transform="matrix(.995 -.099 .099 .995 -36.124 13.093)"/><path d="m475.864 59.867h-439.728c-19.926 0-36.136 16.21-36.136 36.135v105.716c0 22.257 12.795 41.57 31.409 51.006v177.057c0 12.325 10.027 22.352 22.352 22.352h314.122c4.115 0 7.451-3.336 7.451-7.451s-3.336-7.451-7.451-7.451h-172.947v-146.665c0-9.586-7.799-17.385-17.385-17.385h-88.438c-9.586 0-17.385 7.799-17.385 17.385v146.666h-17.967c-4.108 0-7.451-3.342-7.451-7.451v-171.949c3.515.678 7.14 1.046 10.85 1.046 21.282 0 39.871-11.699 49.71-28.996 9.839 17.297 28.428 28.996 49.71 28.996s39.871-11.699 49.71-28.996c3.427 6.024 7.906 11.373 13.202 15.78v118.678c0 9.586 7.799 17.385 17.385 17.385h228.813v48.057c0 4.109-3.342 7.451-7.451 7.451h-54.53c-4.115 0-7.451 3.336-7.451 7.451s3.336 7.451 7.451 7.451h54.53c12.325 0 22.352-10.027 22.352-22.352v-177.059c18.614-9.436 31.409-28.749 31.409-51.006v-105.716c0-19.925-16.21-36.135-36.136-36.135zm-389.234 230.699c0-1.369 1.114-2.484 2.484-2.484h88.438c1.369 0 2.484 1.114 2.484 2.484v146.666h-93.406zm410.469-194.564v68.988h-84.519v-90.222h63.284c11.709 0 21.235 9.526 21.235 21.234zm-141.679 147.975c-23.302 0-42.26-18.957-42.26-42.259v-21.827h84.519v21.827c0 23.302-18.958 42.259-42.259 42.259zm42.259-78.987h-84.519v-90.222h84.519zm-361.543-90.222h63.284v90.222h-84.519v-68.988c0-11.708 9.526-21.234 21.235-21.234zm21.024 169.209c-23.302 0-42.259-18.957-42.259-42.259v-21.827h84.519v21.827c0 23.302-18.958 42.259-42.26 42.259zm99.42 0c-23.302 0-42.259-18.957-42.259-42.259v-21.829c4.04-.086 7.288-3.388 7.288-7.449 0-4.06-3.249-7.355-7.288-7.442v-90.23h84.519v90.222h-50.207c-4.115 0-7.451 3.336-7.451 7.451s3.336 7.451 7.451 7.451h50.207v21.827c0 23.301-18.958 42.258-42.26 42.258zm57.161-42.259v-21.827h54.428c4.115 0 7.451-3.336 7.451-7.451s-3.336-7.451-7.451-7.451h-54.428v-90.221h84.518v126.95c0 23.302-18.957 42.259-42.259 42.259s-42.259-18.957-42.259-42.259zm42.259 57.16c21.282 0 39.871-11.699 49.71-28.996 7.799 13.711 21.099 23.892 36.881 27.526v36.78h-108.198v-39.564c6.671 2.735 13.963 4.254 21.607 4.254zm-21.607 105.462v-55.25h108.198v57.734h-105.714c-1.37 0-2.484-1.114-2.484-2.484zm123.099 2.484v-57.734h108.198v57.734zm108.198-72.636h-108.198v-35.363c20.411-.732 38.12-12.212 47.637-28.943 9.839 17.297 28.428 28.996 49.71 28.996 3.71 0 7.335-.368 10.85-1.046v36.356zm31.409-92.47c0 23.302-18.957 42.259-42.259 42.259s-42.26-18.957-42.26-42.259v-21.827h84.519z"/></g></g></svg>