<svg id="Layer_1" enable-background="new 0 0 512 512" height="512" viewBox="0 0 512 512" width="512" xmlns="http://www.w3.org/2000/svg"><g><g clip-rule="evenodd" fill-rule="evenodd"><path d="m211 10h90v50.002h-90z" fill="#60a4ff"/><path d="m301 60.001h-90v2.748c0 60.593-100 42.677-100 129.251h290c0-86.575-100-68.659-100-129.251z" fill="#a0c8ff"/><path d="m401 192h-290c-5.5 0-10 4.5-10 10v30.001c0 5.5 4.5 9.999 9.999 9.999h60.001 170 60.001c5.5 0 9.999-4.5 9.999-9.999v-30.001c0-5.5-4.5-10-10-10z" fill="#60a4ff"/><path d="m111 242h60.001v59.999h-60.001z" fill="#a0c8ff"/><path d="m171.001 302h-60.001c-5.5 0-9.999 4.5-9.999 10v30c0 5.5 4.5 10 9.999 10h60.001z" fill="#60a4ff"/><path d="m111 352h60.001v60h-60.001z" fill="#a0c8ff"/><path d="m171.001 411.999h-60.001c-5.5 0-9.999 4.5-9.999 10v30.001c0 5.5 4.5 9.999 9.999 9.999h290.001c5.5 0 9.999-4.5 9.999-9.999v-30.001c0-5.5-4.5-10-9.999-10h-60.001z" fill="#60a4ff"/><path d="m401.001 461.999h-290.001c0 22 18.001 40 40 40h210c21.999.001 40-18 40.001-40z" fill="#a0c8ff"/><path d="m171.001 411.999h169.999v-59.999-50-60h-169.999v60 50zm84.999-47.748c-16.119.062-29.409-13.715-29.409-29.808 0-19.436 22.497-44.695 29.409-44.695s29.409 25.259 29.409 44.695c0 16.093-13.29 29.87-29.409 29.808z" fill="#fff"/><path d="m341 242h60.001v59.999h-60.001z" fill="#a0c8ff"/><path d="m401 302h-60v50h60.001c5.5 0 9.999-4.5 9.999-10v-30.001c0-5.5-4.5-9.999-10-9.999z" fill="#60a4ff"/><path d="m341 352h60.001v60h-60.001z" fill="#a0c8ff"/><path d="m256 364.251c16.119.062 29.409-13.715 29.409-29.808 0-19.436-22.497-44.695-29.409-44.695s-29.409 25.259-29.409 44.695c0 16.093 13.29 29.87 29.409 29.808z" fill="#66e0f7"/></g><g><path d="m421 232.001v-30.001c0-7.492-4.147-14.027-10.26-17.452-3.071-47.404-35.38-65.052-61.609-79.351-21.304-11.613-34.515-19.584-37.489-35.228 5.223-.332 9.359-4.662 9.359-9.968 0-5.522-4.477-10-10-10l-.001-30.001c5.523 0 10-4.478 10-10s-4.477-10-10-10h-110c-5.523 0-10 4.478-10 10s4.477 10 10 10v30.002c-5.523 0-10 4.478-10 10 0 5.306 4.136 9.635 9.359 9.968-2.974 15.643-16.185 23.615-37.489 35.228-26.229 14.298-58.538 31.946-61.609 79.35-6.114 3.425-10.261 9.959-10.261 17.452v30.001c0 7.383 4.032 13.829 10 17.293v45.412c-5.968 3.464-10 9.91-10 17.293v30.001c0 7.384 4.032 13.83 10 17.294v45.411c-5.968 3.465-10 9.91-10 17.294v30.001c0 7.624 4.291 14.261 10.583 17.634 3.686 23.96 24.442 42.366 49.417 42.366h210c24.975 0 45.731-18.407 49.418-42.366 6.291-3.374 10.582-10.01 10.582-17.634v-30.001c0-7.383-4.032-13.829-10-17.294v-45.411c5.968-3.465 10-9.91 10-17.294v-30.001c0-7.383-4.032-13.828-10-17.293v-45.412c5.968-3.465 10-9.91 10-17.293zm-200-212.001h70v30.002h-70zm-48.558 102.758c21.044-11.471 44.667-24.37 48.114-52.756h70.889c3.447 28.385 27.07 41.285 48.114 52.756 24.185 13.184 47.13 25.713 50.892 59.242h-89.446c-5.523 0-10 4.478-10 10s4.477 10 10 10h99.995v30l-289.981.001c-.007 0-.013-.001-.019-.001v-30h100.005c5.523 0 10-4.478 10-10s-4.477-10-10-10h-89.455c3.762-33.529 26.707-46.059 50.892-59.242zm-61.442 329.241v-30h290v30zm0-139.999h50v30h-50zm50.001-60s0 .001 0 0v40h-40v-40zm169.999.001v149.998h-149.999v-149.998-.001l149.999.001c0-.001 0 0 0 0zm-170 109.999c.001 0 .001 0 0 0v39.999h-40v-39.999zm190 39.999v-39.999h40v39.999zm0-59.999v-30l49.981-.001c.006 0 .013.001.019.001v30zm0-50v-39.999-.001h40v40zm10 200h-210c-13.037 0-24.152-8.361-28.28-20.001h266.561c-4.128 11.64-15.244 20.001-28.281 20.001z"/><path d="m255.816 374.251h.294c10.25 0 19.989-4.08 27.435-11.497 7.54-7.512 11.864-17.83 11.864-28.312 0-14.457-8.823-28.506-14.082-35.594-5.293-7.134-15.621-19.101-25.327-19.101s-20.034 11.967-25.327 19.101c-5.259 7.088-14.082 21.137-14.082 35.594 0 10.481 4.325 20.8 11.864 28.312 7.447 7.418 17.185 11.497 27.361 11.497zm.184-73.576c6.375 4.95 19.409 21.464 19.409 33.768 0 5.202-2.179 10.357-5.979 14.143-3.67 3.655-8.398 5.666-13.397 5.666-.023 0-.046 0-.07 0s-.046 0-.069 0c-4.924 0-9.653-2.011-13.323-5.666-3.8-3.786-5.979-8.94-5.979-14.143-.001-12.305 13.033-28.818 19.408-33.768z"/><path d="m256.008 202c5.523 0 10-4.478 10-10s-4.477-10-10-10h-.008c-5.523 0-9.996 4.478-9.996 10s4.481 10 10.004 10z"/></g></g></svg>