<svg id="Capa_1" enable-background="new 0 0 512 512" height="512" viewBox="0 0 512 512" width="512" xmlns="http://www.w3.org/2000/svg"><g><g><path d="m155.153 416.5s-41.094 31.955-41.094 88h283.882c0-56.045-41.094-88-41.094-88l-58.073-63.494h-85.547z" fill="#a47cd1"/><path d="m185.153 416.5 58.073-63.494h-30l-58.073 63.494s-41.094 31.955-41.094 88h30c0-56.045 41.094-88 41.094-88z" fill="#986acb"/><circle cx="417.993" cy="251.482" fill="#ffcabd" r="44.656"/><path d="m411.91 145.371s-3.531-137.871-155.91-137.871-155.91 137.871-155.91 137.871z" fill="#ffa875"/><path d="m276 8.347c-6.366-.552-13.024-.847-20-.847-152.379 0-155.909 137.871-155.909 137.871h40s3.221-125.53 135.909-137.024z" fill="#ff995d"/><circle cx="256" cy="241.403" fill="#ffdcce" r="161.993"/><path d="m124.007 241.403c0-84.408 64.56-153.725 146.993-161.295-4.94-.454-9.941-.697-15-.697-77.659 0-142.542 54.65-158.319 127.587-1.177-.106-2.393-.172-3.674-.172-24.663 0-44.656 19.993-44.656 44.656s19.993 44.656 44.656 44.656c3.398 0 6.409-.392 9.099-1.111 22.134 63.11 82.224 108.37 152.894 108.37 5.059 0 10.06-.244 15-.698-82.433-7.571-146.993-76.888-146.993-161.296z" fill="#ffcabd"/><g><g><g><ellipse cx="157.504" cy="272.293" fill="#ff97c0" rx="36.343" ry="28.942"/></g><g><ellipse cx="354.496" cy="272.293" fill="#ff97c0" rx="36.343" ry="28.942"/></g></g></g><path d="m167.914 299.561c-24.222 0-44.439 18.597-46.335 42.746-.277 3.53-.418 7.098-.418 10.699 0 10.177 1.127 20.091 3.264 29.623 6.48 28.908 38.092 44.372 64.95 31.87l23.851-11.102v-103.836z" fill="#4f4c5f"/><path d="m344.086 299.561c24.222 0 44.439 18.597 46.335 42.746.277 3.53.418 7.098.418 10.699 0 10.177-1.127 20.091-3.264 29.623-6.48 28.908-38.092 44.372-64.95 31.87l-23.851-11.102v-103.836z" fill="#4f4c5f"/><path d="m298.774 299.561v103.836l23.851 11.102c7.326 3.41 15.004 4.726 22.431 4.269 13.626-18.403 21.695-41.157 21.695-65.762 0-18.976-4.8-36.85-13.245-52.478-3.048-.628-6.196-.967-9.419-.967z" fill="#423e4f"/><path d="m158.495 300.527c-8.445 15.628-13.245 33.502-13.245 52.478 0 24.605 8.07 47.359 21.695 65.762 7.427.457 15.105-.859 22.431-4.269l23.851-11.102v-103.835h-45.312c-3.224 0-6.373.338-9.42.966z" fill="#423e4f"/><circle cx="256" cy="353.006" fill="#ffa875" r="80.75"/><g fill="#a47cd1"><circle cx="256" cy="353.006" r="42.774"/><path d="m415.405 136.559c-26.684-25.256-81.032-64.865-159.428-64.865-78.351 0-132.68 39.563-159.381 64.821-10.676 10.099-9.64 27.398 2.091 36.25l6.258 4.722c9.254 6.982 22.172 6.28 30.636-1.64 19.942-18.661 61.25-48.722 120.396-48.722 35.084 0 68.108 10.436 98.157 31.02 9.047 6.197 16.491 12.455 22.21 17.79 8.499 7.928 21.443 8.648 30.704 1.625l6.311-4.785c11.691-8.866 12.703-26.13 2.046-36.216z"/></g></g><g><path d="m256 302.732c-27.721 0-50.273 22.553-50.273 50.274s22.553 50.273 50.273 50.273c27.721 0 50.274-22.553 50.274-50.273 0-27.721-22.553-50.274-50.274-50.274zm0 85.547c-19.45 0-35.273-15.824-35.273-35.273 0-19.45 15.823-35.274 35.273-35.274s35.274 15.824 35.274 35.274-15.824 35.273-35.274 35.273z"/><path d="m178.685 219.978c-4.142 0-7.5 3.358-7.5 7.5v16.955c0 4.142 3.358 7.5 7.5 7.5 4.143 0 7.5-3.358 7.5-7.5v-16.955c0-4.142-3.358-7.5-7.5-7.5z"/><path d="m333.315 251.933c4.142 0 7.5-3.358 7.5-7.5v-16.955c0-4.142-3.358-7.5-7.5-7.5s-7.5 3.358-7.5 7.5v16.955c0 4.142 3.358 7.5 7.5 7.5z"/><path d="m114.059 512h283.882c4.142 0 7.5-3.358 7.5-7.5 0-43.106-22.495-72.59-35.334-85.908 12.601-7.563 21.54-19.841 24.786-34.323 4.25-18.959 4.134-38.751 2.121-48.819 6.764-10.119 12.365-20.839 16.761-32.001 30.574 2.477 56.374-21.767 56.374-51.968 0-28.003-22.187-50.914-49.904-52.099-1.562-6.112-3.479-12.139-5.732-18.071 1.165-1.27 14.783-8.299 15.741-25.839.501-9.176-3.032-18.055-9.694-24.36-.993-.94-2.034-1.907-3.112-2.891-3.103-17.833-11.561-49.166-34.352-76.255-29.01-34.483-71.772-51.966-127.096-51.966-31.598 0-59.451 5.836-82.785 17.346-3.715 1.833-5.241 6.33-3.408 10.044s6.329 5.241 10.044 3.409c21.252-10.484 46.872-15.799 76.149-15.799 96.906 0 130.652 57.709 142.387 97.419-86.981-65.246-200.147-63.46-284.739-.06 6.074-20.443 18.108-46.034 41.929-65.847 3.185-2.649 3.618-7.377.97-10.562-2.649-3.185-7.378-3.619-10.563-.97-35.438 29.478-47.398 70.001-51.426 93.193-1.08.985-2.122 1.953-3.116 2.894-6.673 6.313-10.207 15.203-9.695 24.393.982 17.648 14.496 24.437 15.756 25.807-2.26 5.947-4.184 11.988-5.75 18.116-27.717 1.185-49.903 24.095-49.903 52.099 0 30.193 25.793 54.446 56.375 51.968 4.396 11.162 9.997 21.882 16.761 32.001-1.984 9.912-2.188 29.6 2.12 48.818 3.247 14.483 12.186 26.761 24.787 34.324-12.839 13.316-35.334 42.799-35.334 85.907 0 4.142 3.358 7.5 7.5 7.5zm266.197-131.012c-5.159 23.014-30.268 37.605-54.845 26.535 23.176-29.388 24.74-69.645 5.924-100.463 8.162.253 13.547-.568 20.125.71 16.651 3.15 30.095 17.431 31.483 35.123 1.004 12.777.096 25.685-2.687 38.095zm-197.128-20.518c-4.395-43.206 29.667-80.715 72.872-80.715 94.669 0 96.898 136.981 7.503 146.118-41.32 4.224-76.601-26.533-80.375-65.403zm272.021-108.989c0 20.209-16.216 36.701-36.32 37.146 6.644-22.949 8.613-48.323 4.571-73.909 17.935 2.625 31.749 18.111 31.749 36.763zm-353.399-109.517c88.185-83.407 219.727-83.967 308.5.042 7.273 6.885 6.598 18.71-1.422 24.792l-6.311 4.786c-5.186 3.931-12.323 4.431-18.12 1.039-3.856-2.259-15.826-15.735-40.447-29.668-5.749-3.253-12.671 2.036-10.932 8.48.541 1.992 1.823 3.601 3.546 4.576 21.317 12.058 33.543 24.614 36.464 26.955 7.85 6.302 18.272 8.542 28.238 5.722 15.286 42.051 11.561 89.768-11.049 129.27-8.208-13.463-22.165-22.974-38.424-25.338-5.575-.803-7.45-.535-31.993-.558-34.793-36.406-92.859-36.348-127.6 0-26.643.024-26.125-.216-32.072.569-16.012 2.331-30.06 11.737-38.345 25.327-23.207-40.546-25.929-88.404-11.022-129.343 10.78 3.058 22.091.063 29.945-7.291 47.908-44.829 112.883-57.669 169.73-37.316 1.95.698 3.998.54 5.733-.281 5.987-2.83 5.631-11.584-.677-13.842-26.695-9.557-54.97-12.265-81.886-8.856-62.921 7.966-99.795 47.069-104.755 50.647-5.817 4.232-13.723 4.102-19.389-.176l-6.258-4.721c-8.05-6.077-8.736-17.928-1.454-24.815zm-44.899 109.517c0-18.651 13.815-34.137 31.749-36.763-3.733 23.63-2.6 49.136 4.572 73.909-20.105-.444-36.321-16.937-36.321-37.146zm72.205 91.413c1.38-17.575 14.61-31.818 31.429-35.113 5.069-.986 8.379-.707 20.179-.72-19.146 31.361-16.865 71.567 5.924 100.463-.688.167-13.02 7.196-29.119 1.83-13.428-4.474-22.812-15.366-25.727-28.365-2.779-12.405-3.689-25.312-2.686-38.095zm27.959 81.93c22.342 5.445 38.004-5.109 40.416-5.802 33.305 29.627 83.805 29.653 117.139 0 13.629 6.278 23.982 9.811 40.414 5.802 8.252 7.646 32.37 33.146 35.188 72.176h-49.356v-35.094c0-4.142-3.358-7.5-7.5-7.5s-7.5 3.358-7.5 7.5v35.094h-139.631v-35.094c0-4.142-3.357-7.5-7.5-7.5-4.142 0-7.5 3.358-7.5 7.5v35.094h-49.356c2.817-39.039 26.946-64.542 35.186-72.176z"/></g></g></svg>